<?xml version="1.0" encoding="utf-8"?>
<!-- Generator: Adobe Illustrator 16.0.4, SVG Export Plug-In . SVG Version: 6.00 Build 0)  -->
<!DOCTYPE svg PUBLIC "-//W3C//DTD SVG 1.1//EN" "http://www.w3.org/Graphics/SVG/1.1/DTD/svg11.dtd">
<svg version="1.1" id="Layer_1" xmlns="http://www.w3.org/2000/svg" xmlns:xlink="http://www.w3.org/1999/xlink" x="0px" y="0px"
	 width="44.686px" height="41.148px" viewBox="0 0 44.686 41.148" enable-background="new 0 0 44.686 41.148" xml:space="preserve">
<g>
	<g>
		<g>
			<g>
				<polygon fill="#0B0204" points="40.494,36.96 4.189,36.96 4.189,4.19 14.185,4.19 14.185,5.041 5.038,5.041 5.038,36.109 
					39.645,36.109 39.645,5.041 30.204,5.041 30.204,4.19 40.494,4.19 				"/>
			</g>
			<g>
				<polyline fill="#0B0204" points="36.656,39.946 40.07,36.536 43.482,33.122 				"/>
				
					<rect x="38.372" y="31.706" transform="matrix(0.7073 0.707 -0.707 0.7073 37.5588 -17.6337)" fill="#0B0204" width="3.398" height="9.655"/>
			</g>
			<g>
				<polyline fill="#0B0204" points="36.656,8.028 40.07,4.616 43.482,1.202 				"/>
				
					<rect x="38.372" y="-0.212" transform="matrix(0.7071 0.7071 -0.7071 0.7071 14.9997 -26.9831)" fill="#0B0204" width="3.399" height="9.654"/>
			</g>
			<g>
				<polyline fill="#0B0204" points="1.201,39.946 4.614,36.536 8.027,33.122 				"/>
				
					<rect x="2.914" y="31.707" transform="matrix(0.7069 0.7073 -0.7073 0.7069 27.1931 7.4458)" fill="#0B0204" width="3.396" height="9.653"/>
			</g>
		</g>
		<g>
			<polyline fill="#0B0204" points="1.201,8.028 4.614,4.616 8.027,1.202 			"/>
			
				<rect x="2.914" y="-0.211" transform="matrix(0.7067 0.7075 -0.7075 0.7067 4.6174 -1.9099)" fill="#0B0204" width="3.397" height="9.652"/>
		</g>
	</g>
	<g>
		<g>
			<polygon fill="#0B0204" points="22.343,7.838 17.593,1.866 27.093,1.866 			"/>
		</g>
	</g>
	<g>
		<g>
			<path fill="#0B0204" d="M13.245,11.853h3.491l5.607,8.231l5.607-8.231h3.489v17.139h-4.766V20.95l-2.791,3.995h-3.08
				l-2.793-4.043v8.089h-4.765V11.853z"/>
		</g>
	</g>
</g>
</svg>
